<svg width="128" height="40" viewBox="0 0 128 40" fill="none" xmlns="http://www.w3.org/2000/svg">
  <rect width="128" height="40" rx="10" fill="white"/>
  <path d="M51.7027 28L56.1984 12.3619H63.3839L58.8881 28H51.7027Z" fill="#1434CB"/>
  <path d="M82.2417 12.742C80.8218 12.2246 78.5684 11.6667 75.7811 11.6667C68.663 11.6667 63.6539 15.2544 63.6132 20.3896C63.5729 24.1845 67.2736 26.2988 70.0615 27.5802C72.9163 28.8959 73.8823 29.7394 73.8823 30.9199C73.8416 32.7455 71.6294 33.5859 69.565 33.5859C66.6899 33.5859 65.1767 33.1714 62.8738 32.194L61.947 31.7792L60.9395 37.9508C62.6152 38.6748 65.6997 39.3008 68.9054 39.334C76.4748 39.334 81.4029 35.7862 81.4633 30.2842C81.5039 27.274 79.6008 24.9756 75.4556 23.0938C72.9432 21.8479 71.4116 21.0149 71.4116 19.7377C71.4519 18.5944 72.7607 17.3973 75.6555 17.3973C78.0391 17.3592 79.7624 17.8859 81.0708 18.404L81.7157 18.697L82.7247 12.5272L82.2417 12.742Z" fill="#1434CB"/>
  <path d="M91.513 22.4547C92.1167 20.9147 94.4282 14.9109 94.4282 14.9109C94.388 14.9771 95.0319 13.3158 95.3943 12.293L95.918 14.6754C95.918 14.6754 97.348 21.3331 97.6501 22.4547C96.4636 22.4547 92.8435 22.4547 91.513 22.4547ZM100.477 12.3619H94.9109C92.9499 12.3619 91.4834 12.9012 90.6576 14.8617L80.2988 38H87.8687C87.8687 38 89.0767 34.8706 89.3368 34.1944C90.1608 34.1944 97.4888 34.1944 98.5359 34.1944C98.7374 35.0755 99.3425 38 99.3425 38H106.02L100.477 12.3619Z" fill="#1434CB"/>
  <path d="M45.6134 12.3619L38.5667 23.0666L37.8205 19.5099C36.5113 15.1637 32.3773 10.4447 27.7578 8.10449L34.2015 37.9685H41.8301L53.1188 12.3619H45.6134Z" fill="#1434CB"/>
  <path d="M32.0362 12.3619H20.4267L20.3057 12.9198C29.3551 15.1114 35.3484 20.4219 37.8206 27.6068L35.2936 14.9634C34.8679 13.044 33.4819 12.4284 32.0362 12.3619Z" fill="#F7A600"/>
</svg>
